<?xml version="1.0" encoding="utf-8"?>
<!-- Generator: Adobe Illustrator 19.0.0, SVG Export Plug-In . SVG Version: 6.00 Build 0)  -->
<svg version="1.1" id="Layer_1" xmlns="http://www.w3.org/2000/svg" xmlns:xlink="http://www.w3.org/1999/xlink" x="0px" y="0px"
	 viewBox="-49 141 512 512" style="enable-background:new -49 141 512 512;" xml:space="preserve">
<style type="text/css">
	.st0{fill:#91DC5A;stroke:#000000;stroke-width:7;stroke-miterlimit:10;}
	.st1{fill:#FF0000;stroke:#000000;stroke-width:7;stroke-miterlimit:10;}
</style>
<g id="Capa_1">
	<g>
		<g>
			<path class="st0" d="M343.1,350H72.2v303H343V350H343.1z M144.2,611.6h-14.1V391.5h14.1V611.6z M214.7,611.6h-14.1V391.5h14.1
				V611.6z M285.2,611.6h-14.1V391.5h14.1V611.6z"/>
			<path class="st0" d="M371,293.7l-55.1-32.1l29.4-50.6l-120.3-70l-29.4,50.6l-58.7-34.1l-27.9,48l234.1,136.2L371,293.7z
				 M235.1,179.7l71.5,41.6l-15.2,26.2l-71.5-41.6L235.1,179.7z"/>
		</g>
	</g>
</g>
<g id="Layer_2">
	<polygon class="st1" points="72.2,491 130.1,491 130.1,611.6 144.2,611.6 144.2,491 200.6,491 200.6,611.6 214.7,611.6 214.7,491 
		271.1,491 271.1,611.6 285.2,611.6 285.2,491 343.1,491 343.1,653 72.2,653 	"/>
</g>
</svg>
